<svg width="6" height="164" viewBox="0 0 6 164" fill="none" xmlns="http://www.w3.org/2000/svg">
<path d="M6 0.5C7.6282 0.5 9.08537 0.665895 10.1211 0.924805C10.6428 1.05523 11.0302 1.20231 11.2744 1.34668C11.3903 1.41518 11.4468 1.46869 11.4756 1.5C11.4468 1.53131 11.3903 1.58482 11.2744 1.65332C11.0302 1.79769 10.6428 1.94477 10.1211 2.0752C9.08537 2.3341 7.6282 2.5 6 2.5C4.3718 2.5 2.91463 2.3341 1.87891 2.0752C1.35719 1.94477 0.969845 1.79769 0.725586 1.65332C0.60914 1.58446 0.552052 1.53126 0.523438 1.5C0.552052 1.46874 0.60914 1.41554 0.725586 1.34668C0.969845 1.20231 1.35719 1.05523 1.87891 0.924805C2.91463 0.665895 4.3718 0.5 6 0.5Z" stroke="black"/>
<path d="M6 50.5C7.6282 50.5 9.08537 50.6659 10.1211 50.9248C10.6428 51.0552 11.0302 51.2023 11.2744 51.3467C11.3903 51.4152 11.4468 51.4687 11.4756 51.5C11.4468 51.5313 11.3903 51.5848 11.2744 51.6533C11.0302 51.7977 10.6428 51.9448 10.1211 52.0752C9.08537 52.3341 7.6282 52.5 6 52.5C4.3718 52.5 2.91463 52.3341 1.87891 52.0752C1.35719 51.9448 0.969845 51.7977 0.725586 51.6533C0.60914 51.5845 0.552052 51.5313 0.523438 51.5C0.552052 51.4687 0.60914 51.4155 0.725586 51.3467C0.969845 51.2023 1.35719 51.0552 1.87891 50.9248C2.91463 50.6659 4.3718 50.5 6 50.5Z" stroke="black"/>
<path d="M6 100.5C7.6282 100.5 9.08537 100.666 10.1211 100.925C10.6428 101.055 11.0302 101.202 11.2744 101.347C11.3903 101.415 11.4468 101.469 11.4756 101.5C11.4468 101.531 11.3903 101.585 11.2744 101.653C11.0302 101.798 10.6428 101.945 10.1211 102.075C9.08537 102.334 7.6282 102.5 6 102.5C4.3718 102.5 2.91463 102.334 1.87891 102.075C1.35719 101.945 0.969845 101.798 0.725586 101.653C0.60914 101.584 0.552052 101.531 0.523438 101.5C0.552052 101.469 0.60914 101.416 0.725586 101.347C0.969845 101.202 1.35719 101.055 1.87891 100.925C2.91463 100.666 4.3718 100.5 6 100.5Z" stroke="black"/>
<path d="M6 8.5C7.6282 8.5 9.08537 8.6659 10.1211 8.9248C10.6428 9.05523 11.0302 9.20231 11.2744 9.34668C11.3903 9.41518 11.4468 9.46869 11.4756 9.5C11.4468 9.53131 11.3903 9.58482 11.2744 9.65332C11.0302 9.79769 10.6428 9.94477 10.1211 10.0752C9.08537 10.3341 7.6282 10.5 6 10.5C4.3718 10.5 2.91463 10.3341 1.87891 10.0752C1.35719 9.94477 0.969845 9.79769 0.725586 9.65332C0.60914 9.58446 0.552052 9.53126 0.523438 9.5C0.552052 9.46874 0.60914 9.41554 0.725586 9.34668C0.969845 9.20231 1.35719 9.05523 1.87891 8.9248C2.91463 8.6659 4.3718 8.5 6 8.5Z" stroke="black"/>
<path d="M6 58.5C7.6282 58.5 9.08537 58.6659 10.1211 58.9248C10.6428 59.0552 11.0302 59.2023 11.2744 59.3467C11.3903 59.4152 11.4468 59.4687 11.4756 59.5C11.4468 59.5313 11.3903 59.5848 11.2744 59.6533C11.0302 59.7977 10.6428 59.9448 10.1211 60.0752C9.08537 60.3341 7.6282 60.5 6 60.5C4.3718 60.5 2.91463 60.3341 1.87891 60.0752C1.35719 59.9448 0.969845 59.7977 0.725586 59.6533C0.60914 59.5845 0.552052 59.5313 0.523438 59.5C0.552052 59.4687 0.60914 59.4155 0.725586 59.3467C0.969845 59.2023 1.35719 59.0552 1.87891 58.9248C2.91463 58.6659 4.3718 58.5 6 58.5Z" stroke="black"/>
<path d="M6 108.5C7.6282 108.5 9.08537 108.666 10.1211 108.925C10.6428 109.055 11.0302 109.202 11.2744 109.347C11.3903 109.415 11.4468 109.469 11.4756 109.5C11.4468 109.531 11.3903 109.585 11.2744 109.653C11.0302 109.798 10.6428 109.945 10.1211 110.075C9.08537 110.334 7.6282 110.5 6 110.5C4.3718 110.5 2.91463 110.334 1.87891 110.075C1.35719 109.945 0.969845 109.798 0.725586 109.653C0.60914 109.584 0.552052 109.531 0.523438 109.5C0.552052 109.469 0.60914 109.416 0.725586 109.347C0.969845 109.202 1.35719 109.055 1.87891 108.925C2.91463 108.666 4.3718 108.5 6 108.5Z" stroke="black"/>
<path d="M6 17.5C7.6282 17.5 9.08537 17.6659 10.1211 17.9248C10.6428 18.0552 11.0302 18.2023 11.2744 18.3467C11.3903 18.4152 11.4468 18.4687 11.4756 18.5C11.4468 18.5313 11.3903 18.5848 11.2744 18.6533C11.0302 18.7977 10.6428 18.9448 10.1211 19.0752C9.08537 19.3341 7.6282 19.5 6 19.5C4.3718 19.5 2.91463 19.3341 1.87891 19.0752C1.35719 18.9448 0.969845 18.7977 0.725586 18.6533C0.60914 18.5845 0.552052 18.5313 0.523438 18.5C0.552052 18.4687 0.60914 18.4155 0.725586 18.3467C0.969845 18.2023 1.35719 18.0552 1.87891 17.9248C2.91463 17.6659 4.3718 17.5 6 17.5Z" stroke="black"/>
<path d="M6 66.5C7.61807 66.5 9.06264 66.7198 10.085 67.0605C10.5984 67.2317 10.9778 67.4244 11.2188 67.6143C11.4654 67.8086 11.5 67.9427 11.5 68C11.5 68.0573 11.4654 68.1914 11.2188 68.3857C10.9778 68.5756 10.5984 68.7683 10.085 68.9395C9.06264 69.2802 7.61807 69.5 6 69.5C4.38193 69.5 2.93736 69.2802 1.91504 68.9395C1.40162 68.7683 1.02217 68.5756 0.78125 68.3857C0.53462 68.1914 0.5 68.0573 0.5 68C0.5 67.9427 0.53462 67.8086 0.78125 67.6143C1.02217 67.4244 1.40162 67.2317 1.91504 67.0605C2.93736 66.7198 4.38193 66.5 6 66.5Z" stroke="black"/>
<path d="M6 116.5C7.6282 116.5 9.08537 116.666 10.1211 116.925C10.6428 117.055 11.0302 117.202 11.2744 117.347C11.3903 117.415 11.4468 117.469 11.4756 117.5C11.4468 117.531 11.3903 117.585 11.2744 117.653C11.0302 117.798 10.6428 117.945 10.1211 118.075C9.08537 118.334 7.6282 118.5 6 118.5C4.3718 118.5 2.91463 118.334 1.87891 118.075C1.35719 117.945 0.969845 117.798 0.725586 117.653C0.60914 117.584 0.552052 117.531 0.523438 117.5C0.552052 117.469 0.60914 117.416 0.725586 117.347C0.969845 117.202 1.35719 117.055 1.87891 116.925C2.91463 116.666 4.3718 116.5 6 116.5Z" stroke="black"/>
<path d="M6 3.5C7.6282 3.5 9.08537 3.6659 10.1211 3.9248C10.6428 4.05523 11.0302 4.20231 11.2744 4.34668C11.3903 4.41518 11.4468 4.46869 11.4756 4.5C11.4468 4.53131 11.3903 4.58482 11.2744 4.65332C11.0302 4.79769 10.6428 4.94477 10.1211 5.0752C9.08537 5.3341 7.6282 5.5 6 5.5C4.3718 5.5 2.91463 5.3341 1.87891 5.0752C1.35719 4.94477 0.969845 4.79769 0.725586 4.65332C0.60914 4.58446 0.552052 4.53126 0.523438 4.5C0.552052 4.46874 0.60914 4.41554 0.725586 4.34668C0.969845 4.20231 1.35719 4.05523 1.87891 3.9248C2.91463 3.6659 4.3718 3.5 6 3.5Z" stroke="black"/>
<path d="M6 53.5C7.6282 53.5 9.08537 53.6659 10.1211 53.9248C10.6428 54.0552 11.0302 54.2023 11.2744 54.3467C11.3903 54.4152 11.4468 54.4687 11.4756 54.5C11.4468 54.5313 11.3903 54.5848 11.2744 54.6533C11.0302 54.7977 10.6428 54.9448 10.1211 55.0752C9.08537 55.3341 7.6282 55.5 6 55.5C4.3718 55.5 2.91463 55.3341 1.87891 55.0752C1.35719 54.9448 0.969845 54.7977 0.725586 54.6533C0.60914 54.5845 0.552052 54.5313 0.523438 54.5C0.552052 54.4687 0.60914 54.4155 0.725586 54.3467C0.969845 54.2023 1.35719 54.0552 1.87891 53.9248C2.91463 53.6659 4.3718 53.5 6 53.5Z" stroke="black"/>
<path d="M6 103.5C7.6282 103.5 9.08537 103.666 10.1211 103.925C10.6428 104.055 11.0302 104.202 11.2744 104.347C11.3903 104.415 11.4468 104.469 11.4756 104.5C11.4468 104.531 11.3903 104.585 11.2744 104.653C11.0302 104.798 10.6428 104.945 10.1211 105.075C9.08537 105.334 7.6282 105.5 6 105.5C4.3718 105.5 2.91463 105.334 1.87891 105.075C1.35719 104.945 0.969845 104.798 0.725586 104.653C0.60914 104.584 0.552052 104.531 0.523438 104.5C0.552052 104.469 0.60914 104.416 0.725586 104.347C0.969845 104.202 1.35719 104.055 1.87891 103.925C2.91463 103.666 4.3718 103.5 6 103.5Z" stroke="black"/>
<path d="M6 11.5C7.61807 11.5 9.06264 11.7198 10.085 12.0605C10.5984 12.2317 10.9778 12.4244 11.2188 12.6143C11.4654 12.8086 11.5 12.9427 11.5 13C11.5 13.0573 11.4654 13.1914 11.2188 13.3857C10.9778 13.5756 10.5984 13.7683 10.085 13.9395C9.06264 14.2802 7.61807 14.5 6 14.5C4.38193 14.5 2.93736 14.2802 1.91504 13.9395C1.40162 13.7683 1.02217 13.5756 0.78125 13.3857C0.53462 13.1914 0.5 13.0573 0.5 13C0.5 12.9427 0.53462 12.8086 0.78125 12.6143C1.02217 12.4244 1.40162 12.2317 1.91504 12.0605C2.93736 11.7198 4.38193 11.5 6 11.5Z" stroke="black"/>
<path d="M6 61.5C7.6282 61.5 9.08537 61.6659 10.1211 61.9248C10.6428 62.0552 11.0302 62.2023 11.2744 62.3467C11.3903 62.4152 11.4468 62.4687 11.4756 62.5C11.4468 62.5313 11.3903 62.5848 11.2744 62.6533C11.0302 62.7977 10.6428 62.9448 10.1211 63.0752C9.08537 63.3341 7.6282 63.5 6 63.5C4.3718 63.5 2.91463 63.3341 1.87891 63.0752C1.35719 62.9448 0.969845 62.7977 0.725586 62.6533C0.60914 62.5845 0.552052 62.5313 0.523438 62.5C0.552052 62.4687 0.60914 62.4155 0.725586 62.3467C0.969845 62.2023 1.35719 62.0552 1.87891 61.9248C2.91463 61.6659 4.3718 61.5 6 61.5Z" stroke="black"/>
<path d="M6 111.5C7.6282 111.5 9.08537 111.666 10.1211 111.925C10.6428 112.055 11.0302 112.202 11.2744 112.347C11.3903 112.415 11.4468 112.469 11.4756 112.5C11.4468 112.531 11.3903 112.585 11.2744 112.653C11.0302 112.798 10.6428 112.945 10.1211 113.075C9.08537 113.334 7.6282 113.5 6 113.5C4.3718 113.5 2.91463 113.334 1.87891 113.075C1.35719 112.945 0.969845 112.798 0.725586 112.653C0.60914 112.585 0.552052 112.531 0.523438 112.5C0.552052 112.469 0.60914 112.416 0.725586 112.347C0.969845 112.202 1.35719 112.055 1.87891 111.925C2.91463 111.666 4.3718 111.5 6 111.5Z" stroke="black"/>
<path d="M6 20.5C7.6282 20.5 9.08537 20.6659 10.1211 20.9248C10.6428 21.0552 11.0302 21.2023 11.2744 21.3467C11.3903 21.4152 11.4468 21.4687 11.4756 21.5C11.4468 21.5313 11.3903 21.5848 11.2744 21.6533C11.0302 21.7977 10.6428 21.9448 10.1211 22.0752C9.08537 22.3341 7.6282 22.5 6 22.5C4.3718 22.5 2.91463 22.3341 1.87891 22.0752C1.35719 21.9448 0.969845 21.7977 0.725586 21.6533C0.60914 21.5845 0.552052 21.5313 0.523438 21.5C0.552052 21.4687 0.60914 21.4155 0.725586 21.3467C0.969845 21.2023 1.35719 21.0552 1.87891 20.9248C2.91463 20.6659 4.3718 20.5 6 20.5Z" stroke="black"/>
<path d="M6 70.5001C7.6282 70.5001 9.08537 70.666 10.1211 70.9249C10.6428 71.0553 11.0302 71.2024 11.2744 71.3467C11.3903 71.4152 11.4468 71.4688 11.4756 71.5001C11.4468 71.5314 11.3903 71.5849 11.2744 71.6534C11.0302 71.7978 10.6428 71.9448 10.1211 72.0753C9.08537 72.3342 7.6282 72.5001 6 72.5001C4.3718 72.5001 2.91463 72.3342 1.87891 72.0753C1.35719 71.9448 0.969845 71.7978 0.725586 71.6534C0.60914 71.5845 0.552052 71.5313 0.523438 71.5001C0.552052 71.4688 0.60914 71.4156 0.725586 71.3467C0.969845 71.2024 1.35719 71.0553 1.87891 70.9249C2.91463 70.666 4.3718 70.5001 6 70.5001Z" stroke="black"/>
<path d="M6 119.5C7.6282 119.5 9.08537 119.666 10.1211 119.925C10.6428 120.055 11.0302 120.202 11.2744 120.347C11.3903 120.415 11.4468 120.469 11.4756 120.5C11.4468 120.531 11.3903 120.585 11.2744 120.653C11.0302 120.798 10.6428 120.945 10.1211 121.075C9.08537 121.334 7.6282 121.5 6 121.5C4.3718 121.5 2.91463 121.334 1.87891 121.075C1.35719 120.945 0.969845 120.798 0.725586 120.653C0.60914 120.584 0.552052 120.531 0.523438 120.5C0.552052 120.469 0.60914 120.416 0.725586 120.347C0.969845 120.202 1.35719 120.055 1.87891 119.925C2.91463 119.666 4.3718 119.5 6 119.5Z" stroke="black"/>
<path d="M6 25.5C7.6282 25.5 9.08537 25.6659 10.1211 25.9248C10.6428 26.0552 11.0302 26.2023 11.2744 26.3467C11.3903 26.4152 11.4468 26.4687 11.4756 26.5C11.4468 26.5313 11.3903 26.5848 11.2744 26.6533C11.0302 26.7977 10.6428 26.9448 10.1211 27.0752C9.08537 27.3341 7.6282 27.5 6 27.5C4.3718 27.5 2.91463 27.3341 1.87891 27.0752C1.35719 26.9448 0.969845 26.7977 0.725586 26.6533C0.60914 26.5845 0.552052 26.5313 0.523438 26.5C0.552052 26.4687 0.60914 26.4155 0.725586 26.3467C0.969845 26.2023 1.35719 26.0552 1.87891 25.9248C2.91463 25.6659 4.3718 25.5 6 25.5Z" stroke="black"/>
<path d="M6 75.5C7.6282 75.5 9.08537 75.6659 10.1211 75.9248C10.6428 76.0552 11.0302 76.2023 11.2744 76.3467C11.3903 76.4152 11.4468 76.4687 11.4756 76.5C11.4468 76.5313 11.3903 76.5848 11.2744 76.6533C11.0302 76.7977 10.6428 76.9448 10.1211 77.0752C9.08537 77.3341 7.6282 77.5 6 77.5C4.3718 77.5 2.91463 77.3341 1.87891 77.0752C1.35719 76.9448 0.969845 76.7977 0.725586 76.6533C0.60914 76.5845 0.552052 76.5313 0.523438 76.5C0.552052 76.4687 0.60914 76.4155 0.725586 76.3467C0.969845 76.2023 1.35719 76.0552 1.87891 75.9248C2.91463 75.6659 4.3718 75.5 6 75.5Z" stroke="black"/>
<path d="M6 125.5C7.6282 125.5 9.08537 125.666 10.1211 125.925C10.6428 126.055 11.0302 126.202 11.2744 126.347C11.3903 126.415 11.4468 126.469 11.4756 126.5C11.4468 126.531 11.3903 126.585 11.2744 126.653C11.0302 126.798 10.6428 126.945 10.1211 127.075C9.08537 127.334 7.6282 127.5 6 127.5C4.3718 127.5 2.91463 127.334 1.87891 127.075C1.35719 126.945 0.969845 126.798 0.725586 126.653C0.60914 126.584 0.552052 126.531 0.523438 126.5C0.552052 126.469 0.60914 126.415 0.725586 126.347C0.969845 126.202 1.35719 126.055 1.87891 125.925C2.91463 125.666 4.3718 125.5 6 125.5Z" stroke="black"/>
<path d="M6 33.5C7.6282 33.5 9.08537 33.6659 10.1211 33.9248C10.6428 34.0552 11.0302 34.2023 11.2744 34.3467C11.3903 34.4152 11.4468 34.4687 11.4756 34.5C11.4468 34.5313 11.3903 34.5848 11.2744 34.6533C11.0302 34.7977 10.6428 34.9448 10.1211 35.0752C9.08537 35.3341 7.6282 35.5 6 35.5C4.3718 35.5 2.91463 35.3341 1.87891 35.0752C1.35719 34.9448 0.969845 34.7977 0.725586 34.6533C0.60914 34.5845 0.552052 34.5313 0.523438 34.5C0.552052 34.4687 0.60914 34.4155 0.725586 34.3467C0.969845 34.2023 1.35719 34.0552 1.87891 33.9248C2.91463 33.6659 4.3718 33.5 6 33.5Z" stroke="black"/>
<path d="M6 83.5C7.6282 83.5 9.08537 83.6659 10.1211 83.9248C10.6428 84.0552 11.0302 84.2023 11.2744 84.3467C11.3903 84.4152 11.4468 84.4687 11.4756 84.5C11.4468 84.5313 11.3903 84.5848 11.2744 84.6533C11.0302 84.7977 10.6428 84.9448 10.1211 85.0752C9.08537 85.3341 7.6282 85.5 6 85.5C4.3718 85.5 2.91463 85.3341 1.87891 85.0752C1.35719 84.9448 0.969845 84.7977 0.725586 84.6533C0.60914 84.5845 0.552052 84.5313 0.523438 84.5C0.552052 84.4687 0.60914 84.4155 0.725586 84.3467C0.969845 84.2023 1.35719 84.0552 1.87891 83.9248C2.91463 83.6659 4.3718 83.5 6 83.5Z" stroke="black"/>
<path d="M6 133.5C7.6282 133.5 9.08537 133.666 10.1211 133.925C10.6428 134.055 11.0302 134.202 11.2744 134.347C11.3903 134.415 11.4468 134.469 11.4756 134.5C11.4468 134.531 11.3903 134.585 11.2744 134.653C11.0302 134.798 10.6428 134.945 10.1211 135.075C9.08537 135.334 7.6282 135.5 6 135.5C4.3718 135.5 2.91463 135.334 1.87891 135.075C1.35719 134.945 0.969845 134.798 0.725586 134.653C0.60914 134.584 0.552052 134.531 0.523438 134.5C0.552052 134.469 0.60914 134.416 0.725586 134.347C0.969845 134.202 1.35719 134.055 1.87891 133.925C2.91463 133.666 4.3718 133.5 6 133.5Z" stroke="black"/>
<path d="M6 149.5C7.61807 149.5 9.06264 149.72 10.085 150.061C10.5984 150.232 10.9778 150.424 11.2188 150.614C11.4654 150.809 11.5 150.943 11.5 151C11.5 151.057 11.4654 151.191 11.2188 151.386C10.9778 151.576 10.5984 151.768 10.085 151.939C9.06264 152.28 7.61807 152.5 6 152.5C4.38193 152.5 2.93736 152.28 1.91504 151.939C1.40162 151.768 1.02217 151.576 0.78125 151.386C0.53462 151.191 0.5 151.057 0.5 151C0.5 150.943 0.53462 150.809 0.78125 150.614C1.02217 150.424 1.40162 150.232 1.91504 150.061C2.93736 149.72 4.38193 149.5 6 149.5Z" stroke="black"/>
<path d="M6 42.5C7.6282 42.5 9.08537 42.6659 10.1211 42.9248C10.6428 43.0552 11.0302 43.2023 11.2744 43.3466C11.3903 43.4151 11.4468 43.4687 11.4756 43.5C11.4468 43.5313 11.3903 43.5848 11.2744 43.6533C11.0302 43.7977 10.6428 43.9447 10.1211 44.0752C9.08537 44.3341 7.6282 44.5 6 44.5C4.3718 44.5 2.91463 44.3341 1.87891 44.0752C1.35719 43.9447 0.969845 43.7977 0.725586 43.6533C0.60914 43.5844 0.552052 43.5312 0.523438 43.5C0.552052 43.4687 0.60914 43.4155 0.725586 43.3466C0.969845 43.2023 1.35719 43.0552 1.87891 42.9248C2.91463 42.6659 4.3718 42.5 6 42.5Z" stroke="black"/>
<path d="M6 91.5C7.6282 91.5 9.08537 91.6659 10.1211 91.9248C10.6428 92.0552 11.0302 92.2023 11.2744 92.3467C11.3903 92.4152 11.4468 92.4687 11.4756 92.5C11.4468 92.5313 11.3903 92.5848 11.2744 92.6533C11.0302 92.7977 10.6428 92.9448 10.1211 93.0752C9.08537 93.3341 7.6282 93.5 6 93.5C4.3718 93.5 2.91463 93.3341 1.87891 93.0752C1.35719 92.9448 0.969845 92.7977 0.725586 92.6533C0.60914 92.5845 0.552052 92.5313 0.523438 92.5C0.552052 92.4687 0.60914 92.4155 0.725586 92.3467C0.969845 92.2023 1.35719 92.0552 1.87891 91.9248C2.91463 91.6659 4.3718 91.5 6 91.5Z" stroke="black"/>
<path d="M6 141.5C7.6282 141.5 9.08537 141.666 10.1211 141.925C10.6428 142.055 11.0302 142.202 11.2744 142.347C11.3903 142.415 11.4468 142.469 11.4756 142.5C11.4468 142.531 11.3903 142.585 11.2744 142.653C11.0302 142.798 10.6428 142.945 10.1211 143.075C9.08537 143.334 7.6282 143.5 6 143.5C4.3718 143.5 2.91463 143.334 1.87891 143.075C1.35719 142.945 0.969845 142.798 0.725586 142.653C0.60914 142.584 0.552052 142.531 0.523438 142.5C0.552052 142.469 0.60914 142.416 0.725586 142.347C0.969845 142.202 1.35719 142.055 1.87891 141.925C2.91463 141.666 4.3718 141.5 6 141.5Z" stroke="black"/>
<path d="M6 158.5C7.6282 158.5 9.08537 158.666 10.1211 158.925C10.6428 159.055 11.0302 159.202 11.2744 159.347C11.3903 159.415 11.4468 159.469 11.4756 159.5C11.4468 159.531 11.3903 159.585 11.2744 159.653C11.0302 159.798 10.6428 159.945 10.1211 160.075C9.08537 160.334 7.6282 160.5 6 160.5C4.3718 160.5 2.91463 160.334 1.87891 160.075C1.35719 159.945 0.969845 159.798 0.725586 159.653C0.60914 159.584 0.552052 159.531 0.523438 159.5C0.552052 159.469 0.60914 159.416 0.725586 159.347C0.969845 159.202 1.35719 159.055 1.87891 158.925C2.91463 158.666 4.3718 158.5 6 158.5Z" stroke="black"/>
<path d="M6 28.5C7.6282 28.5 9.08537 28.6659 10.1211 28.9248C10.6428 29.0552 11.0302 29.2023 11.2744 29.3467C11.3903 29.4152 11.4468 29.4687 11.4756 29.5C11.4468 29.5313 11.3903 29.5848 11.2744 29.6533C11.0302 29.7977 10.6428 29.9448 10.1211 30.0752C9.08537 30.3341 7.6282 30.5 6 30.5C4.3718 30.5 2.91463 30.3341 1.87891 30.0752C1.35719 29.9448 0.969845 29.7977 0.725586 29.6533C0.60914 29.5845 0.552052 29.5313 0.523438 29.5C0.552052 29.4687 0.60914 29.4155 0.725586 29.3467C0.969845 29.2023 1.35719 29.0552 1.87891 28.9248C2.91463 28.6659 4.3718 28.5 6 28.5Z" stroke="black"/>
<path d="M6 78.5C7.6282 78.5 9.08537 78.6659 10.1211 78.9248C10.6428 79.0552 11.0302 79.2023 11.2744 79.3467C11.3903 79.4152 11.4468 79.4687 11.4756 79.5C11.4468 79.5313 11.3903 79.5848 11.2744 79.6533C11.0302 79.7977 10.6428 79.9448 10.1211 80.0752C9.08537 80.3341 7.6282 80.5 6 80.5C4.3718 80.5 2.91463 80.3341 1.87891 80.0752C1.35719 79.9448 0.969845 79.7977 0.725586 79.6533C0.60914 79.5845 0.552052 79.5313 0.523438 79.5C0.552052 79.4687 0.60914 79.4155 0.725586 79.3467C0.969845 79.2023 1.35719 79.0552 1.87891 78.9248C2.91463 78.6659 4.3718 78.5 6 78.5Z" stroke="black"/>
<path d="M6 128.5C7.6282 128.5 9.08537 128.666 10.1211 128.925C10.6428 129.055 11.0302 129.202 11.2744 129.347C11.3903 129.415 11.4468 129.469 11.4756 129.5C11.4468 129.531 11.3903 129.585 11.2744 129.653C11.0302 129.798 10.6428 129.945 10.1211 130.075C9.08537 130.334 7.6282 130.5 6 130.5C4.3718 130.5 2.91463 130.334 1.87891 130.075C1.35719 129.945 0.969845 129.798 0.725586 129.653C0.60914 129.584 0.552052 129.531 0.523438 129.5C0.552052 129.469 0.60914 129.416 0.725586 129.347C0.969845 129.202 1.35719 129.055 1.87891 128.925C2.91463 128.666 4.3718 128.5 6 128.5Z" stroke="black"/>
<path d="M6 36.5C7.6282 36.5 9.08537 36.6659 10.1211 36.9248C10.6428 37.0552 11.0302 37.2023 11.2744 37.3467C11.3903 37.4152 11.4468 37.4687 11.4756 37.5C11.4468 37.5313 11.3903 37.5848 11.2744 37.6533C11.0302 37.7977 10.6428 37.9448 10.1211 38.0752C9.08537 38.3341 7.6282 38.5 6 38.5C4.3718 38.5 2.91463 38.3341 1.87891 38.0752C1.35719 37.9448 0.969845 37.7977 0.725586 37.6533C0.60914 37.5845 0.552052 37.5313 0.523438 37.5C0.552052 37.4687 0.60914 37.4155 0.725586 37.3467C0.969845 37.2023 1.35719 37.0552 1.87891 36.9248C2.91463 36.6659 4.3718 36.5 6 36.5Z" stroke="black"/>
<path d="M6 86.5C7.6282 86.5 9.08537 86.6659 10.1211 86.9248C10.6428 87.0552 11.0302 87.2023 11.2744 87.3467C11.3903 87.4152 11.4468 87.4687 11.4756 87.5C11.4468 87.5313 11.3903 87.5848 11.2744 87.6533C11.0302 87.7977 10.6428 87.9448 10.1211 88.0752C9.08537 88.3341 7.6282 88.5 6 88.5C4.3718 88.5 2.91463 88.3341 1.87891 88.0752C1.35719 87.9448 0.969845 87.7977 0.725586 87.6533C0.60914 87.5845 0.552052 87.5313 0.523438 87.5C0.552052 87.4687 0.60914 87.4155 0.725586 87.3467C0.969845 87.2023 1.35719 87.0552 1.87891 86.9248C2.91463 86.6659 4.3718 86.5 6 86.5Z" stroke="black"/>
<path d="M6 136.5C7.6282 136.5 9.08537 136.666 10.1211 136.925C10.6428 137.055 11.0302 137.202 11.2744 137.347C11.3903 137.415 11.4468 137.469 11.4756 137.5C11.4468 137.531 11.3903 137.585 11.2744 137.653C11.0302 137.798 10.6428 137.945 10.1211 138.075C9.08537 138.334 7.6282 138.5 6 138.5C4.3718 138.5 2.91463 138.334 1.87891 138.075C1.35719 137.945 0.969845 137.798 0.725586 137.653C0.60914 137.584 0.552052 137.531 0.523438 137.5C0.552052 137.469 0.60914 137.415 0.725586 137.347C0.969845 137.202 1.35719 137.055 1.87891 136.925C2.91463 136.666 4.3718 136.5 6 136.5Z" stroke="black"/>
<path d="M6 153.5C7.6282 153.5 9.08537 153.666 10.1211 153.925C10.6428 154.055 11.0302 154.202 11.2744 154.347C11.3903 154.415 11.4468 154.469 11.4756 154.5C11.4468 154.531 11.3903 154.585 11.2744 154.653C11.0302 154.798 10.6428 154.945 10.1211 155.075C9.08537 155.334 7.6282 155.5 6 155.5C4.3718 155.5 2.91463 155.334 1.87891 155.075C1.35719 154.945 0.969845 154.798 0.725586 154.653C0.60914 154.584 0.552052 154.531 0.523438 154.5C0.552052 154.469 0.60914 154.416 0.725586 154.347C0.969845 154.202 1.35719 154.055 1.87891 153.925C2.91463 153.666 4.3718 153.5 6 153.5Z" stroke="black"/>
<path d="M6 45.5C7.6282 45.5 9.08537 45.6659 10.1211 45.9248C10.6428 46.0553 11.0302 46.2023 11.2744 46.3467C11.3903 46.4152 11.4468 46.4687 11.4756 46.5C11.4468 46.5313 11.3903 46.5849 11.2744 46.6534C11.0302 46.7977 10.6428 46.9448 10.1211 47.0752C9.08537 47.3341 7.6282 47.5 6 47.5C4.3718 47.5 2.91463 47.3341 1.87891 47.0752C1.35719 46.9448 0.969845 46.7977 0.725586 46.6534C0.60914 46.5845 0.552052 46.5313 0.523438 46.5C0.552052 46.4688 0.60914 46.4156 0.725586 46.3467C0.969845 46.2023 1.35719 46.0553 1.87891 45.9248C2.91463 45.6659 4.3718 45.5 6 45.5Z" stroke="black"/>
<path d="M6 94.4999C7.61807 94.4999 9.06264 94.7197 10.085 95.0605C10.5984 95.2317 10.9778 95.4244 11.2188 95.6142C11.4654 95.8086 11.5 95.9427 11.5 95.9999C11.5 96.0572 11.4654 96.1913 11.2188 96.3857C10.9778 96.5755 10.5984 96.7682 10.085 96.9394C9.06264 97.2802 7.61807 97.4999 6 97.4999C4.38193 97.4999 2.93736 97.2802 1.91504 96.9394C1.40162 96.7682 1.02217 96.5755 0.78125 96.3857C0.53462 96.1913 0.5 96.0572 0.5 95.9999C0.5 95.9427 0.53462 95.8086 0.78125 95.6142C1.02217 95.4244 1.40162 95.2317 1.91504 95.0605C2.93736 94.7197 4.38193 94.4999 6 94.4999Z" stroke="black"/>
<path d="M6 144.5C7.6282 144.5 9.08537 144.666 10.1211 144.925C10.6428 145.055 11.0302 145.202 11.2744 145.347C11.3903 145.415 11.4468 145.469 11.4756 145.5C11.4468 145.531 11.3903 145.585 11.2744 145.653C11.0302 145.798 10.6428 145.945 10.1211 146.075C9.08537 146.334 7.6282 146.5 6 146.5C4.3718 146.5 2.91463 146.334 1.87891 146.075C1.35719 145.945 0.969845 145.798 0.725586 145.653C0.60914 145.584 0.552052 145.531 0.523438 145.5C0.552052 145.469 0.60914 145.416 0.725586 145.347C0.969845 145.202 1.35719 145.055 1.87891 144.925C2.91463 144.666 4.3718 144.5 6 144.5Z" stroke="black"/>
<path d="M6 161.5C7.6282 161.5 9.08537 161.666 10.1211 161.925C10.6428 162.055 11.0302 162.202 11.2744 162.347C11.3903 162.415 11.4468 162.469 11.4756 162.5C11.4468 162.531 11.3903 162.585 11.2744 162.653C11.0302 162.798 10.6428 162.945 10.1211 163.075C9.08537 163.334 7.6282 163.5 6 163.5C4.3718 163.5 2.91463 163.334 1.87891 163.075C1.35719 162.945 0.969845 162.798 0.725586 162.653C0.60914 162.584 0.552052 162.531 0.523438 162.5C0.552052 162.469 0.60914 162.416 0.725586 162.347C0.969845 162.202 1.35719 162.055 1.87891 161.925C2.91463 161.666 4.3718 161.5 6 161.5Z" stroke="black"/>
</svg>
