<svg width="77" height="63" viewBox="0 0 77 63" fill="none" xmlns="http://www.w3.org/2000/svg">
<path d="M20.211 48.5279L10.8809 46.5286L20.211 0.595917L63.2728 9.92598L51.072 55.1409L38.8711 52.5265M20.211 48.5279L15.9048 58.7294L20.211 61.6002L24.5172 49.4506M20.211 48.5279L24.5172 49.4506M24.5172 49.4506L33.1296 51.2961M33.1296 51.2961V61.6002H38.8711V52.5265M33.1296 51.2961L38.8711 52.5265" stroke="black"/>
<path d="M20.5991 10.8168C19.5359 10.8162 16.5189 10.6814 13.0657 10.7692C12.2933 10.7889 11.9622 11.3882 11.7066 11.8439C11.2095 12.7299 11.1583 14.3127 11.2912 16.1007C11.3827 17.3316 12.3858 17.9944 13.2915 18.4731C13.7842 18.6572 14.3439 18.7221 15.5499 18.7556C16.7558 18.789 18.5911 18.789 20.4819 18.789" stroke="black" stroke-linecap="round"/>
<path d="M18.0917 23.8284C16.6515 23.8515 13.0078 24.0824 11.614 24.6082C10.9981 24.8404 10.7824 25.4434 10.6438 25.9806C10.5053 26.5179 10.5053 27.0839 10.6881 27.6035C11.2366 28.5793 12.2423 29.2683 13.4431 29.6326C14.0149 29.7779 14.5103 29.8428 15.8566 29.9191" stroke="black" stroke-linecap="round"/>
<path d="M18.0652 34.219C16.3093 34.219 11.866 34.1728 10.2844 34.3827C9.64845 34.4671 9.54332 35.1985 9.46456 35.7724C9.30853 36.9092 9.64539 37.9828 10.2599 38.9154C11.0573 39.7894 12.0029 40.3837 13.4022 40.6476C14.3116 40.7487 15.6258 40.783 17.2975 40.754" stroke="black" stroke-linecap="round"/>
<path d="M28.2913 16.4878C28.2364 16.4878 27.923 16.0741 27.7689 15.3792C27.7017 15.0763 28.456 14.962 28.977 14.9431C29.4981 14.9242 29.9673 15.0265 30.2602 15.3338C30.5531 15.6412 30.6555 16.1504 30.4386 16.4969C30.2218 16.8435 29.6826 17.0119 28.1665 16.8754" stroke="black" stroke-linecap="round"/>
<path d="M28.1666 16.8754C28.2403 16.8754 28.7618 16.896 29.5919 17.1768C30.0023 17.3157 30.1331 17.9362 30.0505 18.3669C29.968 18.7975 29.6023 19.1445 29.1391 19.2577C28.6758 19.3709 28.1261 19.2398 27.739 18.9505C27.3519 18.6612 27.1441 18.2175 27.184 17.7861C27.2239 17.3548 27.5178 16.9492 27.9316 16.7377C28.3454 16.5263 28.8702 16.5213 29.25 16.7362C29.6299 16.9511 29.8489 17.386 29.6426 17.6534C29.4362 17.9209 28.7979 18.0076 28.5988 17.8379C28.3998 17.6683 28.6593 17.2396 28.9778 17.1841C29.2962 17.1286 29.6656 17.4593 29.7314 17.84C29.7972 18.2207 29.5483 18.6413 29.2737 18.6074C28.9991 18.5735 28.7064 18.0724 28.8171 17.7185C28.9278 17.3646 29.4507 17.173 29.4864 17.2353C29.5221 17.2976 29.0547 17.6196 28.623 17.6401C28.1913 17.6606 27.8094 17.3698 27.8457 17.0671C27.8821 16.7644 28.3482 16.4587 28.7915 16.494C29.2347 16.5293 29.6409 16.9149 29.677 17.2945C29.7131 17.6742 29.3668 18.0361 28.7963 18.409" stroke="black" stroke-linecap="round"/>
<path d="M46.9851 20.4039C46.9851 20.3677 46.9964 19.7388 47.2748 18.7108C47.4045 18.2323 48.065 18.0866 48.564 18.0804C49.063 18.0741 49.5223 18.2744 49.7795 18.7124C50.0367 19.1504 50.0779 19.8199 49.8701 20.3165C49.0335 22.3156 46.2621 21.7521 45.3477 21.559C44.8902 21.4624 44.5737 20.9796 44.6611 20.7145C44.7485 20.4494 45.282 20.3171 45.7462 20.4458C46.2104 20.5745 46.5892 20.9683 46.52 20.8672" stroke="black" stroke-linecap="round"/>
<path d="M46.5199 20.4474C46.9579 20.1311 48.5974 19.6041 49.8477 19.844C50.3926 19.9486 50.5757 20.5638 50.684 21.0675C50.7923 21.5711 50.7742 22.0841 50.5103 22.3776C49.9423 23.0094 48.3683 22.7834 46.8925 22.5683C46.2345 22.4725 45.8679 21.9508 45.6738 21.4816C45.4797 21.0124 45.4966 20.4957 45.7598 20.1693C46.0231 19.8429 46.5323 19.7225 47.0582 19.7072C47.5842 19.692 48.1115 19.7856 48.4699 20.0578C48.8282 20.3301 49.0017 20.7781 48.9397 21.2052C48.8778 21.6322 48.5751 22.0247 48.2633 22.4291" stroke="black" stroke-linecap="round"/>
<path d="M35.3313 29.9701C35.2951 29.9701 34.8852 29.5389 34.2902 28.6026C33.9981 28.1429 34.0821 27.5315 34.3597 27.1757C34.9547 26.413 36.2673 26.6038 37.1362 26.8843C37.558 27.0205 37.7537 27.5449 37.8419 28.0009C37.9301 28.457 37.8571 28.9312 37.5671 29.2404C37.2771 29.5496 36.7723 29.6794 36.272 29.6536C35.7717 29.6278 35.2912 29.4425 35.3054 29.3414C35.3821 28.7974 36.8082 28.9785 37.3341 28.8257C37.4345 28.912 37.1967 29.3307 36.8568 29.4032C36.5168 29.4757 36.0819 29.1892 36.2521 28.8677" stroke="black" stroke-linecap="round"/>
<path d="M25.3529 37.0536C25.3529 36.9775 25.7697 36.6125 26.5501 36.3246C26.8931 36.1981 27.2113 36.7736 27.2467 37.2398C27.2821 37.7059 27.0463 38.2145 26.5968 38.5376C25.6293 39.2332 24.3117 39.0959 23.5009 38.8324C22.7028 38.573 23.0206 37.0989 23.297 36.348C24.0607 36.0843 25.0918 35.8308 26.0855 35.5662C26.5669 35.5487 27.0018 35.7684 27.172 37.0366" stroke="black" stroke-linecap="round"/>
<path d="M44.2716 41.155C43.9884 40.7169 43.5272 39.3446 43.7235 38.7585C43.7932 38.5504 44.3023 38.9468 44.3687 39.3144C44.5155 40.1277 43.569 40.9301 42.867 41.3016C42.5382 41.4756 42.0913 40.9449 42.093 40.6168C42.0947 40.2887 42.514 40.0066 42.8817 40.0516C43.2494 40.0966 43.5526 40.4773 43.7201 40.9249C43.8875 41.3724 43.91 41.8754 43.6957 42.0168C43.4814 42.1583 43.0296 41.9231 42.7582 41.5254C42.4867 41.1278 42.4094 40.5749 42.6197 40.3204C42.8301 40.0658 43.3305 40.1264 43.6323 40.4281C43.9342 40.7297 44.0221 41.2708 43.7196 41.6418C43.417 42.0129 42.7213 42.1976 42.0982 42.0519C41.4752 41.9062 40.9461 41.4244 40.5836 40.9482C40.2212 40.4719 40.0415 40.0158 40.1735 39.6944C40.3056 39.373 40.7549 39.2001 41.4447 39.022" stroke="black" stroke-linecap="round"/>
<path d="M32.5082 38.9936C32.5082 38.9562 32.8658 38.5363 33.5342 38.1667C33.8076 38.0156 34.0984 38.6727 34.0414 39.082C33.9844 39.4914 33.6094 39.8209 33.2268 39.8374C32.8442 39.8539 32.4655 39.5476 32.5255 39.4C32.5856 39.2525 33.0961 39.2731 33.4651 39.5249C33.8341 39.7766 34.0463 40.259 33.9107 40.568C33.7751 40.877 33.2852 40.9981 32.7597 40.9337" stroke="black" stroke-linecap="round"/>
<path d="M37.6402 19.0216C37.6764 19.0578 37.8304 19.5457 37.7944 20.1753C37.781 20.4096 37.1407 20.1727 36.8894 19.8433C36.6381 19.5138 36.6324 19.0227 36.8667 18.8066C37.1009 18.5904 37.5752 18.664 38.0063 18.8761C38.4375 19.0881 38.8113 19.4363 39.1964 19.795" stroke="black" stroke-linecap="round"/>
<path d="M32.5971 18.1707C34.21 18.1707 38.9011 18.3804 41.5185 19.057C42.081 19.24 42.5527 19.4072 43.0216 19.5882C43.4906 19.7692 43.9423 19.9589 45.1358 20.4928" stroke="black" stroke-linecap="round"/>
<path d="M45.1357 23.2214C44.4842 23.2377 42.1595 23.62 40.1125 24.5831C39.6115 24.9655 39.0717 25.524 38.6105 26.0152C38.1493 26.5063 37.783 26.9131 37.4056 27.3323" stroke="black" stroke-linecap="round"/>
<path d="M33.2097 30.6281C33.1685 30.6281 32.698 30.8197 31.7252 31.4569C30.6177 32.5964 29.6727 33.7588 28.9699 34.6114C28.6102 35.0166 28.2446 35.366 27.5634 35.9851" stroke="black" stroke-linecap="round"/>
<path d="M28.0436 39.109C29.0595 39.9128 32.0431 42.0156 34.8404 42.6983C35.5282 42.8253 36.0618 42.8865 36.6165 42.8771C37.1712 42.8677 37.7309 42.786 39.4346 42.0059" stroke="black" stroke-linecap="round"/>
<path d="M59.3499 31.9745C60.0607 31.914 62.3602 31.5215 64.5518 30.8467C65.5912 30.6297 66.6135 30.5126 67.6486 30.3791C68.1746 30.2836 68.7018 30.132 69.4682 29.8491" stroke="black" stroke-linecap="round"/>
<path d="M57.0883 38.3602C57.1233 38.3602 58.2532 38.3546 60.6154 38.1514C63.2203 37.5644 65.1977 36.8619 66.3425 36.3141C66.9057 36.0677 67.433 35.8855 68.814 35.6827" stroke="black" stroke-linecap="round"/>
<path d="M72.5902 29.5371C72.1878 30.0775 70.958 32.1219 70.6401 34.1167C70.5606 34.6156 70.9543 35.0925 71.3119 35.3833C72.0234 35.962 73.2733 35.8566 74.4442 35.7318C74.9905 35.6736 75.3942 35.3574 75.7241 34.9882C76.4031 34.2283 76.572 32.5191 76.4747 30.6241C76.4345 29.8401 75.9943 29.4661 75.584 29.1876C75.1736 28.909 74.6993 28.7499 74.1907 28.6383C73.6822 28.5267 73.1536 28.4674 71.8338 28.9074" stroke="black" stroke-linecap="round"/>
<path d="M5.45265 15.4213C6.11954 15.6497 8.19196 16.8984 9.90239 18.3898C10.3238 18.7379 10.7512 19.0537 11.1814 19.3617C11.6116 19.6698 12.0315 19.9606 12.5739 20.4701" stroke="black" stroke-linecap="round"/>
<path d="M4.80223 20.7405C4.83842 20.7405 5.4193 20.801 6.50392 21.026C7.02631 21.1904 7.49181 21.4568 8.06515 21.9158C8.63849 22.3747 9.30556 23.0181 10.8532 24.6926" stroke="black" stroke-linecap="round"/>
<path d="M2.7544 13.0974C2.29963 13.7006 0.992543 15.9907 0.538039 18.2188C0.429577 18.7506 0.565155 19.3198 0.797267 19.7969C1.02938 20.274 1.45245 20.6528 2.29909 20.8654C3.14573 21.078 4.4031 21.1129 5.22275 20.9153C6.0424 20.7178 6.38623 20.2866 6.62856 19.7724C7.12301 18.7233 7.13943 16.8169 6.90392 14.8444C6.81431 14.0939 6.18231 13.987 5.67174 13.8935C5.16117 13.8 4.63701 13.7575 4.21285 13.9559C3.48044 14.5949 3.09045 15.6248 2.98078 16.9174C2.94349 17.634 2.94349 18.474 2.94349 19.3393" stroke="black" stroke-linecap="round"/>
</svg>
